# xmcd
#
# Track frame offsets:
#	150
#	3945
#	20447
#	36597
#	51885
#	72600
#	88822
#	106352
#	118260
#	132477
#	150985
#	170635
#	183197
#
# Disc length: 2586 seconds
#
# Revision: 1
# Processed by: cddbd v1.4PL0 Copyright (c) Steve Scherf et al.
# Submitted via: audiograbber 1.82.02
#
DISCID=b30a180d
DTITLE=Andy Leftwich - Ride
DYEAR=2003
DGENRE=Bluegrass
TTITLE0=(Prelude) Shining Waters
TTITLE1=Shining Waters
TTITLE2=Faultline
TTITLE3=Leaving New Hampshire
TTITLE4=Queen Anne's Lace
TTITLE5=Breakpoint
TTITLE6=A Greater Love
TTITLE7=An Angel Forever
TTITLE8=Slaterville
TTITLE9=Minor Swing
TTITLE10=Shark Tooth
TTITLE11=Melee on the Backstretch
TTITLE12=Jesus Loves Me
EXTD=
EXTT0=
EXTT1=
EXTT2=
EXTT3=
EXTT4=
EXTT5=
EXTT6=
EXTT7=
EXTT8=
EXTT9=
EXTT10=
EXTT11=
EXTT12=
PLAYORDER=
